<?xml version="1.0" encoding="UTF-8"?>
<svg width="27px" height="38px" viewBox="0 0 27 38" version="1.1" xmlns="http://www.w3.org/2000/svg" xmlns:xlink="http://www.w3.org/1999/xlink">
    <title>形状结合备份 27</title>
    <g id="白色情人节-单个样式" stroke="none" stroke-width="1" fill="none" fill-rule="evenodd">
        <g transform="translate(-251.000000, -114.000000)" fill="#F98B9A" id="编组-2">
            <g transform="translate(106.000000, 114.000000)" id="形状结合-2">
                <path d="M25,38 C22.790861,38 21,36.209139 21,34 L21,14 L16,14 C14.3431458,14 13,12.6568542 13,11 C13,9.34314575 14.3431458,8 16,8 L21,8 L21,6 L12,6 C10.3431458,6 9,4.65685425 9,3 C9,1.34314575 10.3431458,3.04359188e-16 12,0 L141,0 C143.209139,-4.05812251e-16 145,1.790861 145,4 L145,22 L160,22 C161.656854,22 163,23.3431458 163,25 C163,26.6568542 161.656854,28 160,28 L145,28 L145,32 L154,32 C155.656854,32 157,33.3431458 157,35 C157,36.6568542 155.656854,38 154,38 L25,38 Z M169,22 C170.656854,22 172,23.3431458 172,25 C172,26.6568542 170.656854,28 169,28 C167.343146,28 166,26.6568542 166,25 C166,23.3431458 167.343146,22 169,22 Z M3,0 C4.65685425,0 6,1.34314575 6,3 C6,4.65685425 4.65685425,6 3,6 C1.34314575,6 0,4.65685425 0,3 C0,1.34314575 1.34314575,0 3,0 Z" id="形状结合"></path>
            </g>
        </g>
    </g>
</svg>